<?xml version="1.0" standalone="no"?>
<!DOCTYPE svg PUBLIC "-//W3C//DTD SVG 20010904//EN"
 "http://www.w3.org/TR/2001/REC-SVG-20010904/DTD/svg10.dtd">
<svg version="1.0" xmlns="http://www.w3.org/2000/svg"
 width="126.000000pt" height="128.000000pt" viewBox="0 0 126.000000 128.000000"
 preserveAspectRatio="xMidYMid meet">

<g transform="translate(0.000000,128.000000) scale(0.100000,-0.100000)"
fill="#000000" stroke="none">
<path d="M0 640 l0 -640 630 0 630 0 0 640 0 640 -630 0 -630 0 0 -640z m775
390 c-8 -51 -19 -40 -30 29 -5 32 -4 46 6 52 20 12 32 -27 24 -81z m-77 57 c4
-20 -25 -34 -40 -19 -15 15 -1 44 19 40 10 -2 19 -11 21 -21z m-280 -30 c4
-20 -25 -34 -40 -19 -15 15 -1 44 19 40 10 -2 19 -11 21 -21z m-238 -31 c0
-18 3 -47 6 -64 6 -30 8 -31 27 -17 28 20 81 19 101 -1 18 -17 21 -30 36 -124
13 -85 14 -80 -15 -80 -24 0 -25 2 -25 70 0 91 -13 120 -55 120 -52 0 -64 -23
-55 -105 5 -38 10 -77 12 -85 2 -8 -5 -16 -17 -18 -20 -3 -22 5 -34 140 -7 79
-17 153 -22 164 -9 25 -3 34 23 34 14 0 18 -8 18 -34z m919 -5 c11 -11 21 -40
25 -77 4 -33 10 -74 13 -91 4 -28 2 -33 -15 -33 -17 0 -20 9 -26 73 -9 92 -13
105 -37 118 -16 8 -26 7 -44 -5 -22 -14 -24 -21 -18 -68 3 -29 9 -69 13 -90 7
-32 5 -37 -15 -40 -21 -4 -23 -1 -28 74 -7 90 -19 118 -49 118 -44 0 -55 -23
-46 -97 5 -38 10 -77 11 -88 1 -14 -5 -21 -19 -23 -19 -3 -21 3 -27 80 -3 46
-9 98 -13 116 -6 28 -4 32 15 32 11 0 21 -4 21 -10 0 -5 13 -1 29 8 25 14 35
15 63 4 27 -10 35 -9 47 3 21 21 77 19 100 -4z m-395 -33 c5 -18 26 -202 23
-204 -1 -1 -11 -4 -22 -6 -15 -2 -19 2 -18 17 3 26 -14 165 -23 188 -5 13 -1
17 15 17 12 0 23 -6 25 -12z m-279 -65 c3 -27 10 -75 15 -107 5 -33 9 -61 7
-62 -1 -1 -11 -4 -22 -6 -18 -3 -21 4 -26 82 -4 47 -10 97 -14 113 -6 23 -4
27 13 27 17 0 22 -8 27 -47z m127 -138 c10 -22 8 -29 -12 -50 -25 -26 -42 -26
-20 0 10 12 9 16 -4 21 -19 7 -21 40 -3 47 22 10 27 7 39 -18z m507 -340 c6
-66 14 -137 18 -157 5 -33 3 -38 -14 -38 -18 0 -21 13 -36 148 -8 81 -18 154
-22 164 -7 18 26 31 36 13 4 -5 12 -64 18 -130z m-479 66 c0 -26 -17 -36 -35
-21 -18 15 -8 40 16 40 12 0 19 -7 19 -19z m394 -73 c3 -18 8 -60 11 -93 4
-33 9 -70 12 -82 4 -18 1 -23 -16 -23 -12 0 -21 5 -21 11 0 5 -10 3 -22 -5
-31 -22 -84 -20 -107 3 -10 10 -21 39 -25 65 -20 146 -20 136 2 136 17 0 21
-9 27 -77 4 -43 11 -86 16 -95 11 -21 68 -25 87 -6 14 14 15 87 2 142 -10 43
-6 56 15 56 8 0 16 -14 19 -32z m-214 -8 c0 -15 -7 -20 -29 -20 -46 0 -52 -17
-41 -104 5 -43 12 -82 15 -87 4 -5 -4 -9 -17 -9 -23 0 -24 5 -36 107 -12 107
-6 141 19 116 8 -8 18 -7 37 3 37 19 52 17 52 -6z m-164 -102 c6 -53 14 -104
17 -112 5 -12 0 -16 -17 -16 -21 0 -24 5 -29 68 -4 37 -10 89 -13 116 -6 44
-5 48 12 44 16 -3 21 -18 30 -100z m-120 74 c20 -13 31 -46 38 -107 4 -33 10
-70 13 -82 4 -19 1 -23 -21 -23 -26 0 -26 1 -26 69 0 38 -4 81 -9 94 -12 32
-45 40 -73 18 -20 -17 -20 -21 -9 -95 14 -97 14 -93 -8 -99 -17 -4 -20 3 -26
72 -10 108 -39 144 -88 109 -15 -12 -16 -22 -7 -89 5 -42 11 -83 12 -90 2 -7
-6 -15 -18 -17 -19 -3 -21 3 -27 72 -4 42 -10 94 -13 116 -6 36 -5 40 15 40
11 0 21 -5 21 -12 0 -6 7 -4 18 5 23 21 66 22 85 2 13 -12 17 -12 32 5 18 20
69 27 91 12z"/>
</g>
</svg>
